<svg width="146.9" height="24" version="1.1" viewBox="0 0 38.867 6.35" xmlns="http://www.w3.org/2000/svg" xmlns:xlink="http://www.w3.org/1999/xlink">
 <path d="m3.1751-5.5807e-5a3.175 3.175 0 0 0-3.1751 3.1751 3.175 3.175 0 0 0 3.1751 3.1751 3.175 3.175 0 0 0 3.1751-3.1751 3.175 3.175 0 0 0-3.1751-3.1751zm0.54106 0.339a0.96903 0.96903 0 0 1 0.96895 0.96895 0.96903 0.96903 0 0 1-0.96895 0.96895 0.96903 0.96903 0 0 1-0.69661-0.29559l-1.0444 0.96275a0.54206 0.54206 0 0 1 0.056845 0.24185 0.54206 0.54206 0 0 1-0.057362 0.24185l1.9488 1.126a0.71422 0.71422 0 0 1 0.58964-0.31213 0.71422 0.71422 0 0 1 0.71418 0.71418 0.71422 0.71422 0 0 1-0.71418 0.71418 0.71422 0.71422 0 0 1-0.71418-0.71418 0.71422 0.71422 0 0 1 0.039275-0.23203l-1.9885-1.1323a0.54206 0.54206 0 0 1-0.35967 0.13643 0.54206 0.54206 0 0 1-0.5421-0.5421 0.54206 0.54206 0 0 1 0.5421-0.5421 0.54206 0.54206 0 0 1 0.35554 0.13281l1.0563-0.94466a0.96903 0.96903 0 0 1-0.15452-0.52401 0.96903 0.96903 0 0 1 0.96895-0.96895z" fill="#fff" stroke-width=".99988"/>
 <g transform="matrix(1.761 0 0 1.761 -4.7247 -18.431)" fill="#fff" aria-label="KineticLab">
  <path d="m7.0073 13.795v-3.048h0.56303v1.2404h0.33123l0.45675-1.2404h0.6096v0.16087l-0.55835 1.3631 0.56258 1.3631v0.16087h-0.61383l-0.45675-1.2404h-0.33123v1.2404z"/>
  <path d="m9.3546 13.795v-2.0461h0.46214v2.0461zm0-2.2507v-0.46567h0.46214v0.46567z"/>
  <path d="m10.226 13.795v-2.0461h1.2402c0.08937 0 0.17051 0.02234 0.24342 0.06703 0.07526 0.04469 0.13406 0.10348 0.17639 0.17639 0.04469 0.07291 0.06703 0.15405 0.06703 0.24342v1.5593h-0.46214v-1.5416c0-0.01176-0.0047-0.02117-0.01411-0.02822-0.0071-0.0094-0.01646-0.01411-0.02822-0.01411h-0.71813c-0.01176 0-0.02234 0.0047-0.03175 0.01411-0.0071 0.0071-0.01058 0.01646-0.01058 0.02822v1.5416z"/>
  <path d="m12.733 13.795c-0.08937 0-0.17051-0.02234-0.24342-0.06703s-0.1317-0.10348-0.17639-0.17639-0.06703-0.15405-0.06703-0.24342v-1.0724c0-0.08937 0.02234-0.17051 0.06703-0.24342s0.10348-0.1317 0.17639-0.17639 0.15405-0.06703 0.24342-0.06703h0.7367c0.08937 0 0.17051 0.02234 0.24342 0.06703 0.07526 0.04469 0.13406 0.10348 0.17639 0.17639 0.04469 0.07291 0.06703 0.15405 0.06703 0.24342v0.76906h-1.2482v0.28575c0 0.01176 0.0035 0.02234 0.01058 0.03175 0.0094 0.0071 0.01999 0.01058 0.03175 0.01058h1.2059v0.46214h-1.2235zm-0.0247-1.2065h0.78609v-0.33514c0-0.01176-0.0047-0.02117-0.01411-0.02822-0.0071-0.0094-0.01646-0.01411-0.02822-0.01411h-0.70142c-0.01176 0-0.02234 0.0047-0.03175 0.01411-0.0071 0.0071-0.01058 0.01646-0.01058 0.02822z"/>
  <path d="m14.813 13.795c-0.08937 0-0.17051-0.02234-0.24342-0.06703s-0.1317-0.10348-0.17639-0.17639-0.06703-0.15405-0.06703-0.24342v-2.1872h0.46214v0.62794h0.79728v0.46214h-0.79728v1.0795c0 0.01176 0.0035 0.02234 0.01058 0.03175 0.0094 0.0071 0.01999 0.01058 0.03175 0.01058h0.75494v0.46214h-0.77258z"/>
  <path d="m15.875 13.795v-2.0461h0.46214v2.0461zm0-2.2507v-0.46567h0.46214v0.46567z"/>
  <path d="m17.149 13.795c-0.08937 0-0.17051-0.02234-0.24342-0.06703s-0.1317-0.10348-0.17639-0.17639-0.06703-0.15405-0.06703-0.24342v-1.0724c0-0.08937 0.02234-0.17051 0.06703-0.24342s0.10348-0.1317 0.17639-0.17639 0.15405-0.06703 0.24342-0.06703h1.22v0.46214h-1.2024c-0.01176 0-0.02234 0.0047-0.03175 0.01411-0.0071 0.0071-0.01058 0.01646-0.01058 0.02822v1.0372c0 0.01176 0.0035 0.02234 0.01058 0.03175 0.0094 0.0071 0.01999 0.01058 0.03175 0.01058h1.2059v0.46214h-1.2235z"/>
  <path d="m19.148 13.795v-3.0522h0.5588v2.4892h1.1421v0.56303z"/>
  <path d="m21.527 13.795c-0.08937 0-0.17169-0.02234-0.24694-0.06703-0.07291-0.04469-0.1317-0.10348-0.17639-0.17639-0.04233-0.07291-0.09961-0.16167-0.0635-0.24342v-0.76906h1.2732v-0.28575c0-0.01176-0.0047-0.02117-0.01411-0.02822-0.0071-0.0094-0.01646-0.01411-0.02822-0.01411h-1.2308v-0.46214h1.2485c0.08937 0 0.17051 0.02234 0.24342 0.06703 0.07526 0.04469 0.13406 0.10348 0.17639 0.17639 0.04469 0.07291 0.06703 0.15405 0.06703 0.24342v1.5593zm0.01764-0.46214h0.76871v-0.37747h-0.81104v0.33514c0 0.01176 0.0035 0.02234 0.01058 0.03175 0.0094 0.0071 0.02347 0.0023 0.03175 0.01058z"/>
  <path d="m23.054 13.795v-2.7164h0.46214v0.67028h0.75091c0.08937 0 0.17051 0.02234 0.24342 0.06703 0.07526 0.04469 0.13406 0.10348 0.17639 0.17639 0.04469 0.07291 0.06703 0.15405 0.06703 0.24342v1.0724c0 0.08937-0.02234 0.17051-0.06703 0.24342-0.04233 0.07291-0.10113 0.1317-0.17639 0.17639-0.07291 0.04469-0.15405 0.06703-0.24342 0.06703zm0.50447-0.46214h0.69094c0.01176 0 0.02117-0.0035 0.02822-0.01058 0.0094-0.0094 0.01411-0.01999 0.01411-0.03175v-1.0372c0-0.01176-0.0047-0.02117-0.01411-0.02822-0.0071-0.0094-0.01646-0.01411-0.02822-0.01411h-0.69094c-0.01176 0-0.02234 0.0047-0.03175 0.01411-0.0071 0.0071-0.01058 0.01646-0.01058 0.02822v1.0372c0 0.01176 0.0035 0.02234 0.01058 0.03175 0.0094 0.0071 0.01999 0.01058 0.03175 0.01058z"/>
 </g>
</svg>
